<svg xmlns:dc="http://purl.org/dc/elements/1.1/" xmlns:cc="http://creativecommons.org/ns#" xmlns:rdf="http://www.w3.org/1999/02/22-rdf-syntax-ns#" xmlns:svg="http://www.w3.org/2000/svg" xmlns="http://www.w3.org/2000/svg" xmlns:sodipodi="http://sodipodi.sourceforge.net/DTD/sodipodi-0.dtd" xmlns:inkscape="http://www.inkscape.org/namespaces/inkscape" version="1.1" x="0px" y="0px" viewBox="0 0 100 100"><g transform="translate(0,-952.36218)"><path style="font-size:medium;font-style:normal;font-variant:normal;font-weight:normal;font-stretch:normal;text-indent:0;text-align:start;text-decoration:none;line-height:normal;letter-spacing:normal;word-spacing:normal;text-transform:none;direction:ltr;block-progression:tb;writing-mode:lr-tb;text-anchor:start;baseline-shift:baseline;opacity:1;color:#000000;fill:#000000;fill-opacity:1;stroke:none;stroke-width:5.29411792999999960;marker:none;visibility:visible;display:inline;overflow:visible;enable-background:accumulate;font-family:Sans;-inkscape-font-specification:Sans" d="m 50,10 c -11.010161,0 -20,8.98984 -20,20 0,9.988544 7.404438,18.320589 17,19.78125 L 47,67 44.78125,67 C 43.32059,57.404417 34.988545,50 25,50 13.98984,50 5,58.9898 5,70 c 0,11.0101 8.98984,20 20,20 9.988545,0 18.32059,-7.404477 19.78125,-17 l 10.4375,0 C 56.664788,82.608755 65.00086,90 75,90 86.010169,90 95,81.0101 95,70 95,58.9898 86.010148,50 75,50 65.011466,50 56.677821,57.406006 55.21875,67 L 53,67 53,49.78125 C 62.595562,48.320589 70,39.988544 70,30 70,18.98984 61.010161,10 50,10 z m 0,6 c 7.76752,0 14,6.23248 14,14 0,2.856754 -0.830662,5.512734 -2.28125,7.71875 C 58.671483,34.799658 54.553111,33 50,33 45.446889,33 41.328517,34.799658 38.28125,37.71875 36.830662,35.512734 36,32.856754 36,30 36,22.23248 42.23248,16 50,16 z m 0,4 c -2.761413,0 -5,2.2386 -5,5 0,2.7614 2.238587,5 5,5 2.761413,0 5,-2.2386 5,-5 0,-2.7614 -2.238587,-5 -5,-5 z M 25,56 c 7.76752,0 14,6.2325 14,14 0,2.856746 -0.830662,5.51273 -2.28125,7.71875 C 33.671483,74.799658 29.553111,73 25,73 20.446889,73 16.328517,74.799658 13.28125,77.71875 11.830662,75.51273 11,72.856746 11,70 11,62.2325 17.232481,56 25,56 z m 50,0 c 7.767532,0 14,6.2324 14,14 0,2.856746 -0.82888,5.510952 -2.28125,7.71875 C 83.671483,74.799658 79.553111,73 75,73 70.446889,73 66.328517,74.799658 63.28125,77.71875 61.82888,75.510952 61,72.856746 61,70 61,62.2324 67.232467,56 75,56 z m -50,4 c -2.761413,0 -5,2.2386 -5,5 0,2.7614 2.238587,5 5,5 2.761413,0 5,-2.2386 5,-5 0,-2.7614 -2.238587,-5 -5,-5 z m 50,0 c -2.761413,0 -5,2.2386 -5,5 0,2.7614 2.238587,5 5,5 2.761413,0 5,-2.2386 5,-5 0,-2.7614 -2.238587,-5 -5,-5 z" transform="translate(0,952.36218)"></path></g></svg>