<?xml version="1.0" encoding="utf-8"?>
<!-- Generator: Adobe Illustrator 21.0.0, SVG Export Plug-In . SVG Version: 6.00 Build 0)  -->
<svg version="1.1" id="Layer_1" xmlns="http://www.w3.org/2000/svg" xmlns:xlink="http://www.w3.org/1999/xlink" x="0px" y="0px"
	 viewBox="0 0 582.2 141.7" style="enable-background:new 0 0 582.2 141.7;" xml:space="preserve">
<style type="text/css">
	.st0{fill:none;stroke:#F42521;stroke-width:10;stroke-miterlimit:10;}
	.st1{fill:none;stroke:#F42521;stroke-width:6;stroke-miterlimit:10;}
	.st2{fill:#F42521;}
	.st3{fill:#222222;}
</style>
<title>RETHINQ_full</title>
<rect x="15.2" y="15.1" class="st0" width="111.4" height="111.4"/>
<line class="st1" x1="29.8" y1="0" x2="29.8" y2="15.2"/>
<line class="st1" x1="0" y1="29.5" x2="15.2" y2="29.5"/>
<line class="st1" x1="0" y1="46" x2="15.2" y2="46"/>
<line class="st1" x1="0" y1="95.5" x2="15.2" y2="95.5"/>
<line class="st1" x1="0" y1="112" x2="15.2" y2="112"/>
<line class="st1" x1="0" y1="79" x2="15.2" y2="79"/>
<line class="st1" x1="0" y1="62.5" x2="15.2" y2="62.5"/>
<line class="st1" x1="126.5" y1="29.5" x2="141.6" y2="29.5"/>
<line class="st1" x1="126.5" y1="46" x2="141.6" y2="46"/>
<line class="st1" x1="126.5" y1="95.5" x2="141.6" y2="95.5"/>
<line class="st1" x1="126.5" y1="112" x2="141.6" y2="112"/>
<line class="st1" x1="126.5" y1="79" x2="141.6" y2="79"/>
<line class="st1" x1="126.5" y1="62.5" x2="141.6" y2="62.5"/>
<line class="st1" x1="46.3" y1="0" x2="46.3" y2="15.2"/>
<line class="st1" x1="62.7" y1="0" x2="62.7" y2="15.2"/>
<line class="st1" x1="79.2" y1="0" x2="79.2" y2="15.2"/>
<line class="st1" x1="95.7" y1="0" x2="95.7" y2="15.2"/>
<line class="st1" x1="112.1" y1="0" x2="112.1" y2="15.2"/>
<line class="st1" x1="29.8" y1="126.5" x2="29.8" y2="141.7"/>
<line class="st1" x1="46.3" y1="126.5" x2="46.3" y2="141.7"/>
<line class="st1" x1="62.7" y1="126.5" x2="62.7" y2="141.7"/>
<line class="st1" x1="79.2" y1="126.5" x2="79.2" y2="141.7"/>
<line class="st1" x1="95.7" y1="126.5" x2="95.7" y2="141.7"/>
<line class="st1" x1="112.1" y1="126.5" x2="112.1" y2="141.7"/>
<path class="st2" d="M95.8,60.9c0,9.5-3.8,15.6-11.3,18.4l15,21.2H83.3L70.1,81.6H61v18.9H47.8V41.2h22.4c9.2,0,15.8,1.6,19.7,4.7
	C93.8,49,95.8,54,95.8,60.9z M79.9,67.9c1.6-1.5,2.5-3.8,2.5-7s-0.8-5.4-2.5-6.6c-1.7-1.2-4.7-1.8-8.9-1.8H61v17.5h9.7
	C75.1,70.1,78.2,69.4,79.9,67.9L79.9,67.9z"/>
<path class="st3" d="M231.4,61.1c0,9.5-3.8,15.6-11.3,18.4l15,21.2h-16.3l-13.1-18.9h-9.1v18.9h-13.2V41.5h22.5
	c9.2,0,15.8,1.6,19.7,4.7C229.5,49.3,231.4,54.3,231.4,61.1z M215.5,68.1c1.6-1.5,2.5-3.8,2.5-7s-0.8-5.4-2.5-6.6
	c-1.7-1.2-4.7-1.8-8.9-1.8h-9.9v17.5h9.7C210.8,70.4,213.9,69.6,215.5,68.1L215.5,68.1z"/>
<path class="st3" d="M286.6,41.5v11.8h-29.5v12.2h26.5v11.2h-26.5V89h30.4v11.7h-43.6V41.5H286.6z"/>
<path class="st3" d="M325.8,52.9v47.8h-13.2V52.9h-16.8V41.5h46.8v11.4H325.8z"/>
<path class="st3" d="M388.2,41.5h13.2v59.2h-13.2V77.4h-23.5v23.3h-13.2V41.5h13.2v24.7h23.5V41.5z"/>
<path class="st3" d="M416.6,41.5h13.2v59.2h-13.2V41.5z"/>
<path class="st3" d="M485.9,41.5h13.2v59.2h-13.2l-28.2-37.1v37.1h-13.2V41.5h12.4l29,38.1L485.9,41.5L485.9,41.5z"/>
<path class="st3" d="M562.5,92.5c-12.4,11.7-31.8,11.7-44.2,0c-12-12.1-12-31.5,0-43.6c12.4-11.7,31.8-11.7,44.2,0
	C574.5,61,574.5,80.4,562.5,92.5z M558,70.7c0.1-5-1.7-9.8-5.1-13.5c-6.2-6.9-16.7-7.5-23.6-1.4c-0.5,0.4-0.9,0.9-1.4,1.4
	c-6.8,7.7-6.8,19.3,0,27c6.2,6.9,16.9,7.4,23.8,1.2c0.4-0.4,0.8-0.8,1.2-1.2C556.3,80.6,558.1,75.7,558,70.7L558,70.7z"/>
<rect x="549.3" y="70.2" transform="matrix(0.7319 -0.6814 0.6814 0.7319 89.1038 402.1804)" class="st3" width="12.8" height="35.4"/>
</svg>
