<svg xmlns="http://www.w3.org/2000/svg" xmlns:xlink="http://www.w3.org/1999/xlink" version="1.1" x="0px" y="0px" viewBox="0, 0, 101.6, 101"><g transform="translate(7, 5)"><path d="M21.8,28 C23.984,28 25.479,28.939 26.36,30.676 C26.973,31.884 27.203,33.015 27.543,35.697 C27.547,35.727 27.547,35.727 27.551,35.757 C27.726,37.042 27.638,36.538 27.775,37.274 C29.275,37.227 28.582,37.285 29.856,37.129 C30.592,37.02 31.379,36.864 32.189,36.673 C32.772,36.535 33.332,36.388 33.848,36.241 C34.156,36.153 34.379,36.085 34.496,36.047 L34.941,36.01 C35.768,36.541 35.549,36.199 35.793,36.881 L35.906,37.821 C36.268,40.841 36.106,39.488 36.393,41.881 C36.452,42.373 36.142,42.834 35.664,42.965 C35.501,43.009 35.217,43.084 34.849,43.175 C34.235,43.327 33.608,43.47 33.001,43.592 L32.412,43.696 C33.069,44.254 32.652,43.899 33.661,44.762 C33.87,44.941 34.063,45.107 34.236,45.256 C34.414,45.409 34.414,45.409 34.453,45.443 C34.8,45.742 34.899,46.238 34.695,46.647 C34.445,47.147 34.445,47.147 33.695,48.647 C32.945,50.147 32.945,50.147 32.695,50.647 C32.456,51.124 31.886,51.33 31.398,51.116 C31.322,51.082 31.179,51.019 30.979,50.931 C30.646,50.783 30.276,50.618 29.877,50.439 C28.736,49.927 27.596,49.406 26.53,48.907 L26.528,48.905 C24.741,47.799 25.529,48.458 24.148,46.945 C23.942,48.741 23.543,50.505 23.164,52.27 C23.12,52.469 23.075,52.676 23.022,52.918 C21.987,57.616 21.725,59.012 21.797,59.921 C21.927,61.563 22.46,67.815 23.268,77.203 L23.281,77.361 C23.613,81.212 23.968,85.329 24.323,89.439 C24.447,90.877 24.563,92.212 24.666,93.409 C24.773,94.641 24.773,94.641 24.796,94.914 C24.847,95.498 24.387,96 23.8,96 L17.8,96 C17.292,96 16.865,95.619 16.807,95.115 L14.87,78.328 L12.994,95.111 C12.937,95.617 12.509,96 12,96 L6,96 C5.406,96 4.944,95.486 5.006,94.896 C5.291,92.188 5.537,89.012 5.858,84.162 C5.922,83.195 6.304,77.269 6.423,75.487 C6.657,71.991 6.869,69.091 7.1,66.308 C8.989,43.576 12.1,30.986 18.592,28.087 C18.721,28.03 18.86,28 19,28 L21.8,28 z M21.8,30 L19.257,30 C13.578,33.573 12.219,42.826 11.189,48.851 C10.191,54.688 9.619,60.579 9.093,66.474 C8.863,69.244 8.652,72.134 8.418,75.621 C8.299,77.399 7.918,83.324 7.853,84.294 C7.638,87.532 7.417,90.77 7.102,94 L11.105,94 L13.847,69.468 L13.807,69.115 C13.798,69.036 13.798,68.955 13.808,68.876 L14.808,60.876 C14.972,59.562 16.941,59.795 16.794,61.111 L15.86,69.464 L18.691,94 L22.71,94 L22.674,93.582 C22.57,92.384 22.455,91.049 22.33,89.611 C21.975,85.501 21.62,81.384 21.289,77.533 C21.282,77.454 21.282,77.454 21.275,77.374 C20.466,67.977 19.934,61.728 19.803,60.079 C19.707,58.86 19.947,57.577 21.068,52.488 C21.121,52.247 21.167,52.041 21.21,51.843 C21.645,49.66 22.229,47.476 22.297,45.238 C22.268,45.154 22.287,45.21 22.236,45.07 C22.162,44.872 22.053,44.597 21.911,44.254 L21.681,43.707 L21.602,43.578 C20.927,42.366 20.338,41.073 19.836,39.782 C19.66,39.33 19.508,38.91 19.379,38.532 C19.301,38.302 19.247,38.135 19.219,38.042 C18.853,36.843 20.578,36.198 21.088,37.343 C21.113,37.398 21.113,37.398 21.223,37.645 C21.33,37.886 21.45,38.155 21.578,38.445 C21.945,39.275 22.312,40.11 22.655,40.898 C22.687,40.973 22.687,40.973 22.719,41.047 C23.251,42.274 22.999,41.686 23.476,42.811 C24.391,44.573 25.709,46.036 27.378,47.095 C27.379,47.095 27.379,47.095 27.38,47.096 C28.434,47.59 29.565,48.107 30.695,48.614 C31.289,48.88 31.076,48.785 31.333,48.899 C31.74,48.084 31.549,48.466 31.906,47.753 C32.288,46.988 32.071,47.422 32.557,46.45 L32.36,46.281 C31.767,45.773 31.172,45.265 30.613,44.792 C30.578,44.762 30.578,44.762 30.542,44.731 C29.63,43.963 30.012,44.28 29.4,43.775 L29.031,43.622 L29.098,43.526 C28.44,42.983 28.741,43.224 28.2,42.8 C26.548,41.561 26.068,39.956 25.567,36.009 C25.563,35.979 25.563,35.979 25.559,35.949 C24.969,31.3 24.31,30 21.8,30 z M33.947,38.287 C33.251,38.477 33.683,38.362 32.649,38.619 C31.786,38.823 30.945,38.99 30.147,39.107 C28.823,39.268 29.466,39.224 28.218,39.254 C28.379,40.044 28.809,40.675 29.4,41.2 C29.964,41.64 29.66,41.397 30.309,41.933 C30.537,41.937 30.385,41.937 30.766,41.916 C31.255,41.875 31.884,41.776 32.608,41.631 C33.758,41.385 33.193,41.512 34.303,41.249 C34.248,40.793 34.288,41.129 34.182,40.239 C34.004,38.762 34.083,39.413 33.947,38.287 z" fill="#000000"></path><path d="M77.6,19 C78.152,19 78.6,19.448 78.6,20 L78.6,36 C78.6,36.553 78.152,37 77.6,37 L54.6,37 L54.6,67 L61.6,67 C62.152,67 62.6,67.448 62.6,68 L62.6,86 C62.6,86.553 62.152,87 61.6,87 C61.048,87 60.6,86.553 60.6,86 L60.6,69 L54.6,69 L54.6,93 L76.6,93 L76.6,76 C76.6,75.448 77.048,75 77.6,75 C78.152,75 78.6,75.448 78.6,76 L78.6,93 L84.6,93 L84.6,76 C84.6,75.448 85.048,75 85.6,75 C86.152,75 86.6,75.448 86.6,76 L86.6,93 L93.6,93 C94.152,93 94.6,93.448 94.6,94 C94.6,94.553 94.152,95 93.6,95 L53.6,95 C53.048,95 52.6,94.553 52.6,94 L52.6,36 C52.6,35.448 53.048,35 53.6,35 L76.6,35 L76.6,20 C76.6,19.448 77.048,19 77.6,19 z" fill="#000000"></path><path d="M93.6,11 C94.152,11 94.6,11.448 94.6,12 L94.6,86 C94.6,86.553 94.152,87 93.6,87 C93.048,87 92.6,86.553 92.6,86 L92.6,69 L70.6,69 L70.6,86 C70.6,86.553 70.152,87 69.6,87 C69.048,87 68.6,86.553 68.6,86 L68.6,68 C68.6,67.448 69.048,67 69.6,67 L92.6,67 L92.6,53 L69.6,53 C69.048,53 68.6,52.553 68.6,52 C68.6,51.448 69.048,51 69.6,51 L92.6,51 L92.6,13 L86.6,13 L86.6,44 C86.6,44.553 86.152,45 85.6,45 L62.6,45 L62.6,59 L85.6,59 C86.152,59 86.6,59.448 86.6,60 C86.6,60.553 86.152,61 85.6,61 L61.6,61 C61.048,61 60.6,60.553 60.6,60 L60.6,44 C60.6,43.448 61.048,43 61.6,43 L84.6,43 L84.6,13 L70.6,13 L70.6,28 C70.6,28.553 70.152,29 69.6,29 L61.6,29 C61.048,29 60.6,28.553 60.6,28 C60.6,27.448 61.048,27 61.6,27 L68.6,27 L68.6,13 L57.6,13 C57.048,13 56.6,12.553 56.6,12 C56.6,11.448 57.048,11 57.6,11 L93.6,11 z" fill="#000000"></path><path d="M42.003,16.998 C45.099,17.249 43.78,17.037 45.984,17.483 C46.465,17.604 46.926,17.747 47.365,17.916 C48.436,18.327 49.492,18.929 50.519,19.672 C51.207,20.169 51.843,20.701 52.412,21.233 C52.757,21.555 53.006,21.809 53.146,21.962 C53.402,22.241 53.477,22.641 53.342,22.995 L51.621,27.476 C51.497,27.8 51.213,28.037 50.872,28.101 C50.769,28.12 50.596,28.146 50.359,28.17 C48.547,28.349 46.695,28.171 44.956,27.623 L30.534,65.195 L28.666,64.478 L43.078,26.934 C41.732,26.325 42.5,26.711 40.812,25.704 C39.41,24.758 38.453,23.804 37.943,23.138 C37.733,22.862 37.68,22.497 37.804,22.172 C38.019,21.612 38.019,21.612 38.664,19.932 C39.31,18.251 39.31,18.251 39.525,17.691 C39.66,17.338 39.984,17.091 40.361,17.054 C40.438,17.047 40.572,17.036 40.755,17.026 L42.003,16.998 z M41.975,18.998 L41.158,19.017 C40.949,19.561 40.74,20.105 40.532,20.648 C40.317,21.207 40.103,21.766 39.888,22.324 L40.109,22.555 C40.617,23.061 41.226,23.57 41.931,24.046 C42.716,24.575 43.572,25.029 44.498,25.384 C46.238,26.089 48.114,26.271 49.973,26.189 L51.242,22.883 L51.047,22.694 C50.535,22.216 49.963,21.738 49.347,21.293 C48.451,20.645 47.541,20.126 46.648,19.783 C46.287,19.644 45.903,19.525 45.498,19.424 C43.553,19.031 44.721,19.218 41.975,18.998 z" fill="#000000"></path><path d="M49.452,36.001 L49.838,36.097 C50.336,36.335 50.548,36.931 50.311,37.43 L46.503,45.43 C46.266,45.929 45.669,46.141 45.17,45.903 C44.672,45.666 44.46,45.069 44.697,44.57 L48.505,36.57 C48.894,36.052 48.619,36.297 49.452,36.001 z" fill="#000000"></path><path d="M49.286,30.061 L49.753,30.061 L50.091,30.27 C50.495,30.648 50.516,31.28 50.138,31.684 L47.33,34.684 C46.953,35.087 46.32,35.108 45.917,34.73 C45.514,34.353 45.493,33.72 45.87,33.317 L48.678,30.317 C49.038,30.054 48.836,30.142 49.286,30.061 z" fill="#000000"></path><path d="M54.413,28.018 C55.281,28.191 54.973,27.988 55.432,28.445 L57.432,31.445 C57.739,31.905 57.614,32.526 57.155,32.832 C56.695,33.139 56.074,33.014 55.768,32.555 L53.768,29.555 C53.462,29.095 53.586,28.475 54.045,28.168 L54.413,28.018 z" fill="#000000"></path><path d="M22.131,13.021 L23.275,13.055 L24.374,13.376 C24.973,13.831 25.684,14.169 26.172,14.742 C27.667,16.498 27.814,18.688 27.642,20.856 C27.043,24.636 24.167,27.416 21.078,26.926 C17.989,26.437 16.113,22.905 16.711,19.125 C17.119,17.02 18.094,14.935 19.999,13.764 C20.64,13.37 21.42,13.268 22.131,13.021 z M22.264,15.021 C20.079,15.606 19.169,17.375 18.687,19.438 C18.245,22.229 19.534,24.657 21.391,24.951 C23.248,25.245 25.224,23.334 25.666,20.544 C25.967,18.287 25.342,15.768 22.962,15.031 L22.962,15.031 L22.264,15.021 z" fill="#000000"></path><path d="M61.536,17.002 C62.376,17.282 62.096,17.042 62.495,17.553 C62.742,18.047 62.541,18.648 62.047,18.895 L58.047,20.895 C57.553,21.142 56.953,20.941 56.706,20.447 C56.459,19.953 56.659,19.353 57.153,19.106 L61.153,17.106 L61.536,17.002 z" fill="#000000"></path><path d="M47.46,11.01 C48.318,11.224 48.021,11.007 48.458,11.486 L51.458,16.486 C51.742,16.959 51.588,17.574 51.115,17.858 C50.641,18.142 50.027,17.988 49.743,17.515 L46.743,12.515 C46.459,12.041 46.612,11.427 47.086,11.143 L47.46,11.01 z" fill="#000000"></path><path d="M52.24,5.014 C52.785,4.922 53.301,5.288 53.394,5.832 L54.586,12.832 C54.679,13.377 54.313,13.893 53.768,13.986 C53.224,14.079 52.707,13.713 52.614,13.168 L51.422,6.168 C51.329,5.624 51.696,5.107 52.24,5.014 z" fill="#000000"></path><path d="M40.413,5.018 C41.281,5.191 40.973,4.988 41.432,5.445 L43.432,8.445 C43.739,8.905 43.614,9.526 43.155,9.832 C42.695,10.139 42.074,10.014 41.768,9.555 L39.768,6.555 C39.462,6.095 39.586,5.475 40.045,5.168 L40.413,5.018 z" fill="#000000"></path><path d="M-1.5,0.5 L-1.5,0.5" fill-opacity="1.0" stroke="#000000" stroke-width="2"></path></g></svg>